PathFileType	4	(X/Y/Z)	S01_0007_Gait_markers.trc
DataRate	CameraRate	NumFrames	NumMarkers	Units	OrigDataRate	OrigDataStartFrame	OrigNumFrames
250.000000	250.000000	4	54	mm	250.000000	151	302
Frame#	Time	HEAD_ANT			R_HEAD			L_HEAD			C7			R_BACK			L_BACK			STERNUM			R_ACROMION			R_HUM_PROX			R_HUM_ANT			R_HUM_POST			R_ELBOW_LAT			R_ELBOW_MED			R_FOREARM			R_WIRST_LAT			R_WRITS_MED			R_HAND			L_ACROMION			L_HUM_PROX			L_HUM_ANT			L_HUM_POST			L_ELBOW_LAT			L_ELBOW_MED			L_FOREARM			L_WRIST_LAT			L_WIRST_MED			L_HAND			R_ILIAC			SACRUM			L_ILIAC			R_GTROCH			R_THIGH__1			R_THIGH_2			R_THIGH_3			R_THIGH_4			R_SHANK_1			R_SHANK_2			R_SHANK_3			R_SHANK_4			R_HEEL			R_FOOT_LAT			R_FOOT_MED			L_GTROCH			L_THIGH_1			L_THIGH_2			L_THIGH_3			L_THIGH_4			L_SHANK_1			L_SHANK_2			L_SHANK_3			L_SHANK_4			L_HEEL			L_FOOT_LAT			L_FOOT_MED			
		X1	Y1	Z1	X2	Y2	Z2	X3	Y3	Z3	X4	Y4	Z4	X5	Y5	Z5	X6	Y6	Z6	X7	Y7	Z7	X8	Y8	Z8	X9	Y9	Z9	X10	Y10	Z10	X11	Y11	Z11	X12	Y12	Z12	X13	Y13	Z13	X14	Y14	Z14	X15	Y15	Z15	X16	Y16	Z16	X17	Y17	Z17	X18	Y18	Z18	X19	Y19	Z19	X20	Y20	Z20	X21	Y21	Z21	X22	Y22	Z22	X23	Y23	Z23	X24	Y24	Z24	X25	Y25	Z25	X26	Y26	Z26	X27	Y27	Z27	X28	Y28	Z28	X29	Y29	Z29	X30	Y30	Z30	X31	Y31	Z31	X32	Y32	Z32	X33	Y33	Z33	X34	Y34	Z34	X35	Y35	Z35	X36	Y36	Z36	X37	Y37	Z37	X38	Y38	Z38	X39	Y39	Z39	X40	Y40	Z40	X41	Y41	Z41	X42	Y42	Z42	X43	Y43	Z43	X44	Y44	Z44	X45	Y45	Z45	X46	Y46	Z46	X47	Y47	Z47	X48	Y48	Z48	X49	Y49	Z49	X50	Y50	Z50	X51	Y51	Z51	X52	Y52	Z52	X53	Y53	Z53	X54	Y54	Z54	

152	0.604	1045.89794921875	1712.336059570312	-369.955657958984	989.2420654296875	1658.69775390625	-291.8590087890622	990.1019897460938	1660.180541992188	-440.159271240234	854.7869262695312	1489.780029296875	-362.5690002441403	778.3048095703125	1297.947143554688	-290.7436523437497	774.7652587890625	1296.992797851562	-425.6131591796872	1030.329956054688	1321.372436523438	-367.716613769531	940.6298217773438	1438.008178710938	-193.0519561767575	918.397705078125	1278.730834960938	-100.9372863769528	980.50390625	1193.451171875	-113.3424682617185	864.0326538085938	1194.015747070312	-76.88874053955051	915.2199096679688	1086.868041992188	-83.29984283447241	868.925048828125	1082.926635742188	-154.7181396484373	1046.072387695312	930.4502563476562	-136.703903198242	1085.237182617188	881.6978759765625	-195.2412719726561	1037.21630859375	838.0547485351562	-144.3343658447264	1123.267333984375	793.1676635742188	-157.7708587646483	925.6970825195312	1441.361328125	-533.1001586914059	875.35693359375	1279.597412109375	-625.3079833984373	926.890625	1192.6298828125	-637.2926635742185	802.9252319335938	1209.885131835938	-643.426086425781	852.1396484375	1099.395385742188	-661.5056152343748	803.5787963867188	1098.179931640625	-599.2227783203123	943.6796875	917.0679321289064	-657.5272216796873	983.2731323242188	859.0291748046876	-612.4133300781248	923.7938842773438	833.9172363281251	-659.9700927734373	1001.743713378906	773.7925415039064	-659.1493530273435	903.265380859375	1039.658569335938	-189.5511322021482	791.5159912109375	1010.077453613281	-370.8320312499998	920.448974609375	1035.709350585938	-534.9105834960935	844.0504150390625	908.2532348632812	-184.2529296874998	799.6519165039062	643.7048950195312	-201.6416168212889	857.6234741210938	641.7036743164062	-195.1187896728514	833.111328125	542.0662841796875	-228.1105804443358	775.2896728515625	569.1170654296875	-221.9375457763671	651.2667236328125	372.8421936035157	-223.8591156005859	687.967041015625	327.2583007812501	-239.2221069335937	640.94775390625	257.5899353027344	-258.6605834960937	589.8369140625	294.9905090332032	-248.4868164062499	447.8690185546875	142.0845642089845	-332.8973999023437	568.8793334960938	23.34894752502447	-260.0091247558594	630.2125244140625	29.31368255615242	-356.0885009765625	908.4817504882812	922.0015258789064	-543.9935913085935	1089.005859375	674.7158813476564	-519.9843749999999	1034.210205078125	671.6649780273439	-543.2983398437499	1055.138671875	572.0783081054689	-505.4202575683593	1111.675659179688	599.9655761718751	-490.4372253417968	1162.115844726562	333.8399047851564	-490.8227233886718	1113.619873046875	297.3499450683595	-495.2334289550781	1135.654418945312	213.7481689453126	-477.8861999511718	1194.196533203125	238.3413696289064	-469.8012695312499	1149.271362304688	31.46615982055673	-408.9526672363281	1328.521606445312	43.17193984985362	-470.5153198242188	1357.658935546875	68.68746185302743	-376.0764770507812	
153	0.608	1051.782348632812	1712.308959960938	-370.905364990234	994.9803466796875	1658.503051757812	-292.9707031249997	995.9383544921875	1659.975463867188	-441.0444946289059	860.6466674804688	1489.53515625	-363.5161132812497	784.60205078125	1297.757080078125	-291.6529541015622	781.015625	1296.8330078125	-426.1379089355466	1036.644897460938	1321.434936523438	-368.644836425781	946.564208984375	1438.02099609375	-193.8550415039059	924.2093505859375	1278.672241210938	-101.471755981445	986.1875610351562	1193.373291015625	-113.6505889892575	869.6608276367188	1194.126220703125	-77.62277984619114	920.7080078125	1086.8193359375	-83.76787567138648	874.6454467773438	1082.814697265625	-155.2745513916013	1051.39501953125	929.7106323242188	-136.7121429443357	1090.580200195312	881.0362548828125	-194.847946166992	1042.171508789062	837.447021484375	-143.9971313476561	1128.025024414062	792.2601928710938	-156.9491882324217	931.8269653320312	1440.946166992188	-533.8270874023434	881.4943237304688	1279.034057617188	-625.852844238281	933.1215209960938	1192.130126953125	-637.679748535156	808.9020385742188	1209.004638671875	-643.7777709960935	858.4029541015625	1098.693237304688	-661.7135009765623	809.8975830078125	1097.596801757813	-599.7006225585935	949.964599609375	916.6416625976564	-657.5952148437498	989.6294555664062	858.4454956054689	-612.7111816406248	930.0785522460938	833.2567749023439	-660.1083374023435	1007.908325195312	773.0612792968751	-659.1066284179685	909.7689208984375	1039.367919921875	-189.8536529541013	798.2050170898438	1009.832153320313	-370.908752441406	927.1536254882812	1035.4560546875	-535.6044311523435	850.7537231445312	907.7783203125	-184.7294921874998	806.843994140625	642.8469848632812	-202.1570892333983	864.8493041992188	641.0911865234375	-195.4440460205077	840.4381713867188	541.2472534179688	-228.2513427734374	782.6397705078125	568.324951171875	-222.1315765380858	657.1727905273438	373.2800598144532	-223.5992889404296	693.4605712890625	327.4249267578126	-239.0233917236327	645.4520263671875	258.4440002441407	-258.1326904296874	594.9702758789062	296.6990966796876	-247.6691741943359	451.1424865722656	145.9168090820313	-331.4951171874999	569.5271606445312	23.98622322082525	-259.9505615234375	630.3201904296875	29.29190444946297	-356.1111145019531	915.4202270507812	921.9854125976564	-544.6390991210935	1096.08837890625	675.3966064453126	-519.3648071289061	1041.44873046875	672.8308715820314	-543.1107788085936	1061.760375976562	573.0235595703126	-505.2626342773436	1118.39208984375	600.2055664062501	-490.1520690917968	1167.867065429688	334.3758239746095	-490.6722412109374	1118.920166015625	298.0548400878907	-494.5342407226562	1140.578247070312	214.4024658203126	-477.3366394042968	1199.521728515625	238.4618225097657	-469.7112426757812	1150.707153320312	32.38467025756845	-409.3482666015625	1330.496826171875	39.98395538330089	-470.0578002929688	1360.093994140625	65.8440475463868	-375.4793395996094	
154	0.612	1057.51806640625	1712.406494140625	-371.999847412109	1000.911437988281	1658.635375976562	-294.0873413085934	1002.036987304688	1659.927734375	-441.9811096191403	866.6152954101562	1489.3994140625	-364.2813720703122	790.8648681640625	1297.540161132812	-292.7147521972653	787.2896728515625	1296.874755859375	-426.607971191406	1042.974731445312	1321.596923828125	-369.4821166992185	952.3969116210938	1438.056396484375	-194.4470825195309	929.958740234375	1278.703979492188	-102.2357254028317	991.9021606445312	1193.43017578125	-114.0434417724607	875.2591552734375	1194.26318359375	-78.48624420165989	926.4070434570312	1086.791870117188	-84.45341491699195	880.2505493164062	1082.916381835938	-156.0148468017576	1056.643310546875	929.1609497070312	-136.7563171386717	1095.912109375	880.3131103515625	-194.3921661376951	1047.088134765625	836.9072875976562	-143.585494995117	1132.728881835938	791.3580322265625	-156.1664886474608	937.9146728515625	1440.648071289063	-534.6847534179684	887.6070556640625	1278.523071289063	-626.397277832031	939.3681640625	1191.674682617188	-638.378234863281	814.9793090820312	1208.521240234375	-644.0659179687498	864.6478881835938	1098.080932617188	-661.9813842773435	816.2735595703125	1096.939453125	-599.7861328124998	956.3265380859375	915.9987182617189	-657.7509155273435	995.92041015625	857.7425537109376	-612.8375244140623	936.279296875	832.6498413085939	-660.1885986328123	1014.225708007812	772.4603271484376	-659.2101440429685	917.1682739257812	1038.968627929688	-190.1820068359373	804.8499755859375	1009.982849121094	-370.8625183105466	933.4920043945312	1035.155883789063	-535.977600097656	857.3367919921875	906.9832763671875	-185.1968536376951	814.185302734375	642.018310546875	-202.6315002441405	872.2839965820312	640.3599853515625	-195.6631774902342	848.0247802734375	540.3549194335938	-228.4390258789061	790.2269287109375	567.3123779296875	-222.4385375976561	663.6422729492188	374.3951721191407	-223.1049346923827	699.0816650390625	327.7410888671876	-238.643814086914	650.227294921875	259.2773132324219	-257.6199340820312	600.1641235351562	298.1928405761719	-247.1240692138671	454.6734313964844	149.8815002441407	-330.0233459472656	570.388671875	24.74515151977545	-259.9007568359375	630.4295654296875	29.2472229003907	-356.1782531738281	922.3385009765625	922.1512451171876	-545.315246582031	1103.074951171875	676.1316528320314	-518.9874267578124	1048.546875	673.9860839843751	-542.8502197265624	1068.51220703125	573.6023559570314	-505.2838745117186	1125.220825195312	601.1121826171876	-490.0640563964843	1174.244750976562	334.9070434570314	-490.3857116699218	1124.907348632812	299.1307678222657	-494.0532836914062	1145.835693359375	215.1455230712892	-477.1430358886718	1204.99609375	238.7717132568361	-469.5921325683593	1151.963012695312	33.21310424804697	-409.8398742675781	1331.6708984375	37.44657516479503	-470.0877990722656	1361.87353515625	63.15944671630868	-374.445068359375	
155	0.616	1063.411010742188	1712.600341796875	-373.1150512695309	1006.904418945312	1658.939453125	-295.0841369628903	1007.762756347656	1660.003173828125	-442.9993286132809	872.6530151367188	1489.355590820312	-365.3231201171872	797.166259765625	1297.325073242188	-293.6575622558591	793.4251708984375	1296.879028320312	-427.3162841796872	1049.12646484375	1322.034301757812	-370.2750549316403	958.2662963867188	1438.326293945312	-195.1249237060544	935.7186279296875	1278.947021484375	-102.7929382324216	997.5964965820312	1193.452758789062	-114.3032073974607	880.7985229492188	1194.45849609375	-79.30354309082004	931.9989624023438	1087.001342773438	-84.93598175048804	885.076171875	1082.873657226562	-156.5696563720701	1061.725952148438	928.711669921875	-136.654098510742	1100.989013671875	879.688232421875	-193.7330322265623	1051.908325195312	836.43310546875	-143.1569213867186	1137.296508789062	790.47509765625	-155.4902038574217	943.9364013671875	1440.418579101563	-535.4703369140622	893.7412109375	1278.158081054688	-626.9977416992185	945.6602783203125	1191.32470703125	-639.0231323242185	821.136962890625	1207.972534179688	-644.3106689453123	871.0623168945312	1097.50341796875	-662.0333251953123	822.6864013671875	1096.498046875	-600.0753784179685	962.6888427734375	915.3574218750001	-657.8762207031248	1002.297485351562	857.3915405273439	-613.106750488281	942.4213256835938	832.1851196289064	-660.3609619140623	1020.444519042969	771.9808349609376	-659.3080444335935	927.1880493164062	1038.706909179688	-189.9941253662107	811.5228271484375	1010.1845703125	-371.1072692871091	940.3829956054688	1035.056884765625	-536.576965332031	864.1334838867188	906.39404296875	-185.4388580322264	821.8058471679688	641.1387939453125	-202.8021087646483	879.70654296875	639.5953979492188	-195.8841705322264	855.800537109375	539.6028442382812	-228.5021057128905	797.953369140625	566.5233764648438	-222.7417755126952	670.1207275390625	375.1139526367188	-222.8088836669921	704.8745727539062	328.0834350585938	-238.4014129638671	655.1560668945312	260.1920776367188	-257.0359191894531	605.6502685546875	299.8688964843751	-246.3976135253906	458.39404296875	153.7031707763673	-328.6322937011718	571.256103515625	25.48696899414068	-259.8576049804688	630.5994873046875	29.20455551147469	-356.2500305175781	929.2595825195312	922.4696044921876	-546.0412597656248	1110.182006835938	677.1688842773439	-518.5025634765624	1055.754272460938	674.9147338867189	-542.2655029296874	1075.488403320312	574.7973022460939	-505.2160644531249	1132.192016601562	601.6683959960939	-489.748565673828	1180.4970703125	335.388397216797	-490.1695861816406	1130.6357421875	300.1292419433595	-494.0717773437499	1150.93408203125	215.9060668945314	-477.4801025390624	1210.039184570312	239.0010070800782	-468.9151000976562	1153.017578125	34.04066467285165	-410.2804565429688	1333.021728515625	35.44454956054698	-469.3827209472656	1362.9404296875	60.13143157958993	-372.82568359375	
